<svg width="357" height="325" viewBox="0 0 357 325" fill="none" xmlns="http://www.w3.org/2000/svg">
<g filter="url(#filter0_d_11_1672)">
<path d="M351.356 324.556C352.079 324.72 352.778 324.416 353.245 323.644C353.828 323.107 353.968 322.453 353.711 321.892C353.711 321.658 353.711 321.424 353.711 321.167C352.009 297.352 357.397 273.373 357 249.418C356.534 222.377 355.507 195.383 355.391 168.319C355.181 114.379 353.735 60.4847 353.711 6.54392C353.711 3.57578 351.845 2.52408 350.516 3.38881C349.909 3.10836 349.046 2.96813 347.95 3.03824C321.874 4.62748 295.657 -0.350583 269.441 -1.48378e-05C239.866 0.420667 210.337 1.37889 180.739 1.47237C121.752 1.70608 62.7654 3.01487 3.77849 3.03824C0.0932638 3.03824 -0.886352 5.25851 0.816314 6.42707C0.816314 6.47381 0.816314 6.49718 0.816314 6.54392C0.839638 60.4379 2.23909 114.309 2.49566 168.179C2.6356 194.074 3.42862 219.9 4.03505 245.772C4.33827 258.766 4.10502 271.41 2.70557 284.334C1.37609 296.51 -0.0466813 308.593 0.816314 320.863C0.816314 321.027 0.862962 321.167 0.862962 321.307C-0.933 322.476 0.0466155 324.743 3.77849 324.743C63.1385 324.72 122.475 323.434 181.835 323.2C210.361 323.084 238.793 322.359 267.318 321.775C281.616 321.494 295.564 321.705 309.792 323.013C323.203 324.252 336.521 325.561 350.049 324.743M271.097 317.591C241.335 318.012 211.62 318.97 181.859 319.064C122.988 319.251 64.1415 320.559 5.27123 320.606C3.63854 296.908 8.97978 273.046 8.58327 249.184C8.14011 222.167 7.09052 195.196 6.9739 168.179C6.76398 114.496 5.34121 60.8352 5.29456 7.17495C63.7916 7.1282 122.265 5.86616 180.739 5.63245C209.078 5.51559 237.347 4.79108 265.686 4.2068C279.914 3.92635 293.768 4.13669 307.903 5.44548C321.221 6.68415 334.469 7.99294 347.904 7.17495C348.393 7.15157 348.813 7.08146 349.186 6.98798C349.233 60.7885 350.609 114.566 350.866 168.343C350.982 194.261 351.799 220.11 352.405 246.005C352.708 259 352.475 271.667 351.076 284.615C349.77 296.627 348.37 308.57 349.163 320.676C323.25 322.079 297.15 317.241 271.074 317.615L271.097 317.591Z" fill="#8363A9"/>
</g>
<defs>
<filter id="filter0_d_11_1672" x="-1.0094" y="-3.01776" width="369.03" height="337.015" filterUnits="userSpaceOnUse" color-interpolation-filters="sRGB">
<feFlood flood-opacity="0" result="BackgroundImageFix"/>
<feColorMatrix in="SourceAlpha" type="matrix" values="0 0 0 0 0 0 0 0 0 0 0 0 0 0 0 0 0 0 127 0" result="hardAlpha"/>
<feOffset dx="5" dy="3"/>
<feGaussianBlur stdDeviation="3"/>
<feComposite in2="hardAlpha" operator="out"/>
<feColorMatrix type="matrix" values="0 0 0 0 0 0 0 0 0 0 0 0 0 0 0 0 0 0 0.5 0"/>
<feBlend mode="normal" in2="BackgroundImageFix" result="effect1_dropShadow_11_1672"/>
<feBlend mode="normal" in="SourceGraphic" in2="effect1_dropShadow_11_1672" result="shape"/>
</filter>
</defs>
</svg>
