<svg width="87" height="39" viewBox="0 0 87 39" fill="none" xmlns="http://www.w3.org/2000/svg">
<path d="M75.5338 17.8267L75.4113 17.8116C72.9288 17.5039 70.6073 17.8438 68.7164 18.6228L67.6393 19.0666L66.7219 18.3485C65.4095 17.3213 63.8536 16.4335 62.1124 15.7621L60.8766 15.2855L60.8331 13.9617C60.6597 8.68659 55.0866 3.21503 46.6763 2.16605L75.5338 17.8267ZM75.5338 17.8267H75.5369M75.5338 17.8267H75.5369M75.5369 17.8267C78.5421 18.2253 81.0695 19.4801 82.7475 21.1021C84.4466 22.7445 85.1923 24.659 84.9571 26.4733C84.7211 28.2932 83.5079 29.9737 81.4406 31.1536C79.3736 32.3332 76.5612 32.9306 73.5049 32.55L73.4982 32.5492C72.6059 32.4411 71.7349 32.2354 70.8868 31.9685L69.6905 31.5921L68.8306 32.505C65.8551 35.6639 60.3991 37.5991 54.2496 36.8332C51.7089 36.515 49.3854 35.7646 47.3745 34.7255L46.4649 34.2556L45.5518 34.7186C42.5606 36.2354 38.7001 36.9572 34.5633 36.4411L34.5591 36.4406C31.3555 36.0476 28.494 34.9661 26.1897 33.4709L25.4087 32.9642L24.5182 33.2355C22.0221 33.9959 19.1684 34.2763 16.1789 33.9037L16.1785 33.9037C11.7216 33.349 7.9406 31.5018 5.41427 29.0589C2.88937 26.6174 1.69803 23.683 2.06608 20.816L75.5369 17.8267ZM31.1825 7.47477L29.96 7.06206C29.0772 6.76405 28.1327 6.54297 27.1472 6.41933C22.1084 5.79184 17.9497 7.79459 16.3831 10.4975L15.8557 11.4075L14.807 11.4886C7.66892 12.0408 2.67984 16.0624 2.06611 20.8158L31.1825 7.47477ZM31.1825 7.47477L32.0624 6.53108M31.1825 7.47477L32.0624 6.53108M32.0624 6.53108C35.0288 3.34982 40.5027 1.39973 46.6753 2.16592L32.0624 6.53108Z" fill="#BFC4F3" stroke="white" stroke-width="4"/>
</svg>
