<svg width="645" height="106" viewBox="0 0 645 106" fill="none" xmlns="http://www.w3.org/2000/svg">
<path d="M441.213 12.07C448.677 16.73 454.84 21.98 461.359 27.53L468.308 33.38L473.317 37.96L479.529 43.47L481.96 45.46L487.582 49.39C487.988 49.68 488.638 49.96 488.589 50.4C488.552 50.84 488.687 51.09 488.233 51.32L483.507 53.72L482.205 54.06L471.942 57.68L459.628 61.92L449.463 67.33L448.628 67.84L431.625 77.1L428.998 78.46C428.224 78.87 427.168 78.68 426.665 78.04C426.481 77.81 426.407 77.55 426.407 77.3C426.407 76.85 426.69 76.4 427.193 76.14L429.832 74.78L446.603 65.65L447.425 65.14L458.229 59.43L470.542 55.19L481.002 51.5L482.573 51.09C482.573 51.09 483.298 50.78 484.022 50.47C482.119 49.16 479.517 47.38 479.517 47.38L477.233 45.51L470.751 39.77L465.902 35.34L458.928 29.46C452.495 23.98 446.418 18.82 439.163 14.28C438.733 14.01 438.5 13.6 438.5 13.19C438.5 12.9 438.623 12.6 438.844 12.35C439.408 11.75 440.476 11.63 441.213 12.1V12.07Z" fill="#6D6E71"/>
<path d="M382.407 0.770011L393.861 1.56C406.261 2.33 419.078 3.13 430.729 6.59L440.219 11.85C440.636 12.09 440.906 12.46 440.943 12.88C441.25 16.12 440.01 18.43 438.696 20.87L437.69 22.78L434.522 32.07L434.105 33.64C431.036 44.8 429.55 54.93 429.55 64.59L429.734 67.74C430.152 72.82 430.778 80.48 422.159 81.45C415.972 82.13 409.318 81.64 402.873 81.16L394.463 80.64L369.713 78.83L352.55 77.41C318.629 75.23 286.022 77.96 255.858 81.23C241.175 82.82 227.634 87.18 214.547 91.4C204.492 94.64 194.094 97.98 183.131 100.12C154.833 105.64 122.938 107.24 93.3261 104.61L81.0861 103.59C64.6107 102.27 47.5583 100.91 31.8685 97.33C31.3038 97.21 30.8741 96.86 30.7022 96.41C30.5304 95.96 30.6531 95.46 31.0337 95.11C33.1821 93.08 33.9801 90.29 34.7659 87.6C34.7659 87.58 37.1475 80.51 37.1475 80.51L40.5114 68.82C41.5181 61.64 40.0571 55.25 38.5103 48.48L37.1353 42.09C36.6688 39.83 36.2882 38.04 37.7 36.72C38.7804 35.7 40.6096 35.29 43.8138 35.36L58.4232 36.63L74.3707 37.92L96.1374 38.08C113.411 38.28 127.05 38.43 143.784 37.09C159.928 35.79 175.728 32.2 191 28.74C204.824 25.6 219.126 22.35 233.785 20.76C245.804 19.45 257.54 16.29 268.884 13.24C279.589 10.36 290.651 7.37001 302.093 5.89001L306.463 5.32001C331.557 2.04001 357.498 -1.34 382.383 0.760001L382.407 0.770011ZM429.206 9.02001C418.354 5.84001 405.782 5.06001 393.604 4.30001L382.064 3.50001C357.608 1.44001 331.888 4.79001 307.016 8.03001L302.621 8.60001C291.461 10.05 280.522 13 269.952 15.85C258.473 18.94 246.577 22.15 234.251 23.49C219.814 25.06 205.634 28.28 191.921 31.39C176.513 34.89 160.578 38.51 144.127 39.83C127.222 41.18 113.485 41.03 96.1129 40.83L74.3953 40.67L57.9567 39.35L43.7524 38.1C40.9902 38.04 40.3886 38.41 40.2658 38.52C40.1431 38.63 40.094 38.86 40.094 39.17C40.094 39.8 40.3027 40.76 40.4746 41.63L41.8495 47.97C43.0281 53.13 44.2312 58.42 44.2312 64.06C44.2312 65.72 44.133 67.4 43.8875 69.13L40.4132 81.29L38.0683 88.23C37.4176 90.46 36.46 92.85 34.9132 95.03C49.7558 98.2 65.8138 99.6 81.4299 100.85L93.6944 101.87C122.938 104.46 154.428 102.88 182.345 97.44C193.099 95.34 203.375 92.04 213.319 88.83C226.59 84.55 240.34 80.13 255.429 78.5C285.777 75.21 318.58 72.47 352.82 74.67L370.094 76.1L394.61 77.9L403.18 78.43C409.428 78.9 415.886 79.38 421.693 78.74C425.621 78.3 426.555 75.67 426.555 71.77C426.555 70.6 426.469 69.31 426.358 67.94L426.162 64.6C426.162 54.73 427.684 44.4 430.79 33.05L431.207 31.49L434.547 21.77L435.59 19.77C436.707 17.7 437.616 16.02 437.616 13.85V13.72C436.425 13.06 429.194 9.01 429.194 9.01L429.206 9.02001Z" fill="#6D6E71"/>
<path d="M429.206 8.26C418.354 5.08 405.782 4.3 393.616 3.54L382.076 2.74001C357.62 0.680009 331.901 4.03001 307.028 7.27001L302.645 7.84C291.485 9.29 280.547 12.24 269.977 15.09C258.498 18.18 246.602 21.39 234.276 22.73C219.838 24.3 205.671 27.52 191.945 30.63C176.538 34.13 160.603 37.75 144.152 39.07C127.247 40.42 113.509 40.27 96.1374 40.07L74.4198 39.91L57.9812 38.59L43.777 37.34C41.0147 37.28 40.4132 37.65 40.2904 37.76C40.1677 37.87 40.1185 38.1 40.1185 38.41C40.1185 39.04 40.3272 40 40.4991 40.87L41.8741 47.21C43.0527 52.37 44.2558 57.66 44.2558 63.3C44.2558 64.96 44.1453 66.64 43.9121 68.37L40.4377 80.53L38.0929 87.47C37.4422 89.7 36.4846 92.09 34.9377 94.27C49.7804 97.44 65.8384 98.84 81.4544 100.09L93.7189 101.11C122.962 103.7 154.452 102.12 182.37 96.68C193.124 94.58 203.4 91.28 213.344 88.07C226.615 83.79 240.365 79.37 255.453 77.74C285.801 74.45 318.605 71.71 352.845 73.91L370.118 75.34L394.635 77.14L403.204 77.67C409.453 78.14 415.911 78.62 421.717 77.98C425.646 77.54 426.579 74.91 426.579 71.01C426.579 69.84 426.493 68.55 426.383 67.18L426.186 63.84C426.186 53.97 427.709 43.64 430.815 32.29L431.232 30.73L434.571 21.01L435.615 19.01C436.732 16.94 437.64 15.26 437.64 13.09V12.96C436.45 12.3 429.219 8.25 429.219 8.25L429.206 8.26Z" fill="white"/>
<path d="M12.5326 32.18C20.488 35.93 30.3953 36.24 39.0627 36.24C39.9958 36.24 40.7569 36.86 40.7569 37.61C40.7569 38.36 40.008 38.98 39.0627 38.98C29.9656 38.98 19.5304 38.63 10.8384 34.55C10.0404 34.17 9.75806 33.33 10.2369 32.67C10.6911 32.01 11.7346 31.79 12.5449 32.17L12.5326 32.18Z" fill="#6D6E71"/>
<path d="M2.41662 92.31L9.96683 93.42L12.2135 94.07L17.0628 94.65L19.911 94.83L21.4702 94.98C26.074 95.44 29.7202 95.79 34.0907 94.9C34.9869 94.72 35.9077 95.16 36.1409 95.9C36.3742 96.64 35.8217 97.38 34.9132 97.57C29.9289 98.59 25.8284 98.19 21.065 97.72L19.5304 97.57L16.8787 97.4L11.2191 96.7L8.78827 96.01L2.7481 95.06C1.83962 94.91 0.771538 94.18 0.943413 93.44C1.10301 92.7 1.52041 92.19 2.42889 92.32L2.41662 92.31Z" fill="#6D6E71"/>
<path d="M517.329 47C518.065 47.45 518.225 48.31 517.66 48.92C517.096 49.53 516.052 49.65 515.303 49.2C509.386 45.61 507.446 46.79 503.162 49.4L499.319 51.6C494.948 53.84 492.149 53.03 488.908 52.09L485.495 51.2C484.599 50.97 484.022 50.18 484.317 49.45C484.587 48.73 485.458 48.31 486.342 48.54L490.05 49.5C493.033 50.37 494.531 50.81 497.526 49.28L501.148 47.2C505.58 44.5 509.386 42.18 517.341 47H517.329Z" fill="#6D6E71"/>
<path d="M584.996 28.16C581.186 29.59 578.256 32.61 576.866 36.43C574.246 43.66 571.986 54.91 582.236 57.07C597.566 60.3 636.216 31.43 634.406 20.16C632.956 11.12 598.566 23.07 584.996 28.16Z" fill="#FCEE21"/>
<path d="M609.306 34.17C587.816 51.81 579.136 43.57 576.176 38.48C573.946 45.62 572.916 55.1 582.236 57.06C597.566 60.28 636.216 31.42 634.406 20.15C634.226 19.03 633.536 18.23 632.446 17.71C625.766 21.6 617.846 27.17 609.306 34.17Z" fill="#F2D214"/>
<path d="M585.956 58.36C596.896 57.61 614.216 47.34 625.466 36.62C629.576 32.7 636.356 25.32 635.496 19.98C635.286 18.69 634.536 17.63 633.326 16.93C625.966 12.66 599.646 21.48 584.606 27.13C580.536 28.66 577.336 31.91 575.836 36.06C573.946 41.26 572.266 48.48 574.976 53.35C576.366 55.85 578.736 57.46 582.016 58.15C583.206 58.4 584.526 58.47 585.966 58.37L585.956 58.36ZM625.596 18.04C628.686 17.83 630.926 18.08 632.216 18.83C632.866 19.21 633.206 19.68 633.316 20.33C633.816 23.46 630.316 28.95 623.946 35.02C611.876 46.52 591.876 57.96 582.466 55.98C579.806 55.42 577.986 54.2 576.906 52.26C574.596 48.11 576.176 41.56 577.906 36.79C579.186 33.25 581.916 30.48 585.386 29.17C603.266 22.46 617.396 18.59 625.606 18.02L625.596 18.04Z" fill="black"/>
<path d="M594.004 34.7044C600.824 32.4975 605.803 29.0088 605.125 26.9122C604.446 24.8156 598.367 24.905 591.547 27.1119C584.726 29.3188 579.747 32.8075 580.426 34.9041C581.104 37.0007 587.183 36.9113 594.004 34.7044Z" fill="#77E7EA"/>
<path d="M586.036 37.5C588.496 37.33 591.396 36.73 594.336 35.78C600.786 33.69 607.246 29.93 606.166 26.6C605.816 25.53 604.576 24.27 600.616 24.32C597.946 24.36 594.606 24.99 591.196 26.09C584.746 28.18 578.286 31.94 579.366 35.27C579.716 36.34 580.956 37.6 584.916 37.55C585.276 37.55 585.646 37.53 586.026 37.5H586.036ZM599.646 26.58C599.996 26.56 600.326 26.54 600.656 26.54C603.046 26.5 603.996 27.03 604.076 27.29C604.346 28.11 601.116 31.28 593.666 33.69C590.466 34.73 587.356 35.32 584.896 35.35C582.506 35.39 581.556 34.86 581.476 34.6C581.206 33.78 584.436 30.61 591.886 28.2C594.656 27.3 597.376 26.74 599.646 26.58Z" fill="#582B1D"/>
<path d="M506.076 62.51C506.076 62.51 570.396 85.01 618.186 64.35C665.976 43.69 634.596 28.88 616.986 30.47C599.386 32.06 607.476 6.03999 579.056 6.50999C550.636 6.97999 519.096 44.86 504.326 28.48C489.546 12.1 478.196 50.01 506.076 62.5V62.51Z" fill="#F93065"/>
<path d="M581.716 73.75C594.246 72.89 606.936 70.41 618.616 65.36C642.306 55.11 645.676 46.64 644.326 41.33C642.136 32.72 626.656 28.5 616.886 29.37C609.786 30.02 607.306 25.77 604.216 20.39C600.306 13.6 595.446 5.13999 579.046 5.40999C566.166 5.62999 552.576 13.4 540.586 20.27C525.666 28.82 512.776 36.2 505.146 27.75C500.566 22.68 496.726 23.07 494.846 23.76C490.876 25.21 488.156 30.32 487.926 36.8C487.606 45.74 492.086 57.45 505.636 63.52C505.666 63.53 505.696 63.54 505.726 63.55C506.216 63.72 543.166 76.4 581.736 73.75H581.716ZM617.656 31.52C627.546 30.84 640.486 35.2 642.186 41.87C643.796 48.2 635.116 55.82 617.736 63.34C571.406 83.38 508.446 62.16 506.476 61.49C493.966 55.87 489.816 45.09 490.116 36.88C490.316 31.39 492.516 26.95 495.586 25.83C497.976 24.96 500.706 26.14 503.496 29.23C512.306 39 526.566 30.83 541.666 22.19C553.426 15.46 566.746 7.80998 579.066 7.61998C594.176 7.36998 598.486 14.87 602.286 21.49C605.496 27.07 608.546 32.33 617.066 31.57C617.256 31.55 617.456 31.54 617.646 31.52H617.656Z" fill="black"/>
<path d="M597.126 12.42C598.506 13.74 599.656 15.2 600.666 16.69C598.466 25.6 593.476 37.87 582.506 40.12C564.926 43.72 532.556 52.63 526.036 49.35C519.516 46.07 518.376 36.04 521.216 34.05C524.056 32.06 552.786 29.12 574.576 21.2C588.346 16.2 591.476 17.32 597.126 12.43V12.42Z" fill="#FF97B7"/>
<path d="M489.716 32.14C490.366 37.79 492.836 44.99 500.546 49.92C514.976 59.13 547.116 68.15 600.396 58.18C631.896 52.29 635.226 40.95 632.686 32.66C645.856 37.47 652.836 49.36 618.186 64.35C570.396 85.01 506.076 62.51 506.076 62.51C490.756 55.65 487.296 41.13 489.726 32.14H489.716Z" fill="#BA3036"/>
<path d="M581.716 73.75C594.246 72.89 606.936 70.41 618.606 65.36C636.036 57.82 644.776 50.35 644.566 43.14C644.426 38.44 640.236 34.24 633.056 31.62C632.666 31.48 632.226 31.57 631.916 31.86C631.616 32.15 631.496 32.58 631.616 32.98C632.716 36.58 632.366 39.92 630.566 42.9C626.716 49.26 616.496 54.04 600.186 57.09C538.206 68.68 508.706 53.81 501.136 48.98C495.136 45.15 491.656 39.43 490.806 32.01C490.746 31.48 490.326 31.08 489.796 31.04C489.276 31 488.786 31.34 488.646 31.85C486.316 40.48 488.916 56.03 505.616 63.51C506.166 63.71 543.136 76.4 581.716 73.74V73.75ZM634.246 34.49C639.336 36.75 642.266 39.87 642.366 43.22C642.466 46.72 639.406 53.98 617.736 63.35C570.896 83.61 507.066 61.7 506.436 61.48C494.616 56.18 490.456 46.5 490.136 38.73C491.696 42.98 494.616 47.45 499.956 50.86C507.696 55.8 537.826 71.02 600.596 59.28C617.546 56.11 628.266 50.99 632.456 44.07C634.236 41.13 634.826 37.92 634.246 34.5V34.49Z" fill="black"/>
<path d="M590.476 44.7C578.926 45.57 571.216 38.92 569.816 32.22C568.846 27.54 570.806 21 579.546 17.96C580.006 17.8 580.476 17.65 580.976 17.51C582.456 17.09 583.806 16.67 585.046 16.24C590.866 14.22 593.956 12.15 595.416 10.96C604.936 18.19 604.186 31.59 616.926 30.48C616.856 31.6 616.376 32.68 615.526 33.46C611.256 37.35 605.566 40.71 599.926 42.68C596.736 43.79 593.556 44.47 590.476 44.7Z" fill="#F2D214"/>
<path d="M590.146 40.32C574.746 41.48 567.006 26.01 582.166 21.74C591.586 19.09 596.356 15.98 598.626 14C604.016 20.28 605.446 28.48 612.566 30.21C607.486 34.84 598.966 39.65 590.146 40.32Z" fill="#F8FAFB"/>
<path d="M590.376 45.81C590.436 45.81 590.496 45.81 590.556 45.8C593.736 45.56 597.006 44.86 600.286 43.72C606.066 41.71 611.896 38.27 616.266 34.27C617.316 33.32 617.936 31.99 618.026 30.54C618.046 30.22 617.926 29.91 617.696 29.68C617.466 29.46 617.136 29.34 616.836 29.37C609.776 29.95 607.286 25.75 604.196 20.38C602.206 16.92 599.946 13.01 596.086 10.07C595.676 9.75999 595.116 9.76999 594.716 10.1C593.446 11.14 590.456 13.18 584.686 15.19C583.446 15.62 582.096 16.04 580.676 16.44C580.156 16.58 579.666 16.74 579.186 16.91C569.776 20.18 567.676 27.32 568.736 32.43C570.216 39.55 578.296 46.63 590.376 45.8V45.81ZM590.386 43.6C590.326 43.6 590.276 43.6 590.216 43.61C579.386 44.35 572.176 38.2 570.886 32C570.006 27.76 571.846 21.81 579.896 19C580.336 18.85 580.786 18.7 581.256 18.57C582.726 18.16 584.116 17.72 585.396 17.28C590.466 15.52 593.566 13.71 595.396 12.36C598.516 14.96 600.426 18.28 602.276 21.49C605.286 26.71 608.136 31.67 615.506 31.64C615.326 32.02 615.076 32.36 614.766 32.64C610.606 36.44 605.056 39.71 599.546 41.63C596.446 42.71 593.356 43.37 590.376 43.59L590.386 43.6Z" fill="black"/>
<path d="M500.546 49.92C501.786 49.17 503.276 49.02 504.656 49.48C507.256 50.34 510.906 52.2 509.246 55.54C506.766 60.54 490.146 64.97 487.396 61.98C485.186 59.58 496.126 52.6 500.556 49.93L500.546 49.92Z" fill="#FCEE21"/>
<path d="M496.856 58.05C506.536 55.94 506.156 51.69 505.386 49.74C507.876 50.69 510.756 52.5 509.246 55.54C506.766 60.54 490.146 64.97 487.396 61.98C487.126 61.68 487.056 61.31 487.146 60.89C489.706 59.88 493.016 58.89 496.866 58.06L496.856 58.05Z" fill="#F2D214"/>
<path d="M492.246 64.01C492.816 63.97 493.426 63.9 494.076 63.81C499.406 63.06 508.226 60.06 510.236 56.02C510.866 54.76 510.936 53.54 510.466 52.4C509.766 50.73 507.936 49.39 505.006 48.42C503.316 47.86 501.486 48.06 499.976 48.97C491.076 54.34 486.386 58.34 486.026 60.85C485.926 61.56 486.116 62.21 486.576 62.71C487.536 63.76 489.446 64.19 492.236 64L492.246 64.01ZM502.816 50.33C503.316 50.3 503.826 50.36 504.316 50.52C506.546 51.26 508.006 52.23 508.436 53.26C508.656 53.79 508.606 54.37 508.266 55.05C506.876 57.84 499.476 60.83 493.776 61.63C490.146 62.14 488.576 61.62 488.216 61.23C488.046 60.35 491.396 56.74 501.126 50.87C501.646 50.56 502.226 50.38 502.826 50.34L502.816 50.33Z" fill="black"/>
<path d="M500.849 55.2319C502.974 53.8109 504.345 52.1303 503.909 51.4783C503.473 50.8263 501.396 51.4498 499.27 52.8708C497.144 54.2918 495.774 55.9722 496.21 56.6242C496.646 57.2762 498.723 56.6529 500.849 55.2319Z" fill="#FEFCD3"/>
<path d="M559.476 42.2C561.876 41.36 562.986 38.71 562.056 36.04L561.036 33.12C560.056 30.31 557.226 28.5 554.586 29L551.596 29.56C551.366 29.6 551.146 29.66 550.946 29.73C549.346 30.29 548.316 31.66 548.086 33.3C546.746 31.65 544.676 30.74 542.706 31.11L539.726 31.67C539.496 31.71 539.276 31.77 539.076 31.84C537.466 32.4 536.436 33.77 536.216 35.42C534.886 33.77 532.806 32.86 530.836 33.23L527.856 33.79C527.626 33.83 527.406 33.89 527.206 33.96C524.806 34.8 523.696 37.45 524.626 40.12L525.646 43.04C526.626 45.85 529.456 47.66 532.106 47.17L535.086 46.61C535.316 46.57 535.536 46.51 535.736 46.44C537.336 45.88 538.376 44.51 538.596 42.86C539.926 44.51 542.006 45.42 543.976 45.05L546.956 44.49C547.186 44.45 547.406 44.39 547.606 44.32C549.206 43.76 550.236 42.4 550.466 40.75C551.806 42.4 553.876 43.31 555.846 42.94L558.836 42.38C559.066 42.34 559.286 42.28 559.486 42.21L559.476 42.2Z" fill="black"/>
<path d="M551.836 30.84L554.816 30.28C556.806 29.91 559.026 31.37 559.786 33.54L560.806 36.46C561.566 38.63 560.566 40.7 558.576 41.07L555.596 41.63C553.606 42 551.386 40.54 550.626 38.37L549.606 35.45C548.846 33.28 549.846 31.21 551.836 30.84ZM528.096 35.06L531.076 34.5C533.066 34.13 535.286 35.59 536.046 37.76L537.066 40.68C537.826 42.85 536.826 44.92 534.836 45.29L531.856 45.85C529.866 46.22 527.646 44.76 526.886 42.59L525.866 39.67C525.106 37.5 526.106 35.43 528.096 35.06ZM539.966 32.95L542.946 32.39C544.936 32.02 547.156 33.48 547.916 35.65L548.936 38.57C549.696 40.74 548.696 42.81 546.706 43.18L543.726 43.74C541.736 44.11 539.516 42.65 538.756 40.48L537.736 37.56C536.976 35.39 537.976 33.32 539.966 32.95Z" fill="#F8FAFB"/>
<path d="M566.013 17.5875C573.175 15.095 578.536 11.7974 577.988 10.2222C577.44 8.647 571.19 9.39061 564.028 11.8831C556.867 14.3756 551.505 17.6731 552.054 19.2484C552.602 20.8236 558.852 20.08 566.013 17.5875Z" fill="#FF97B7"/>
<path d="M499.764 35.4411C501.543 34.822 502.279 32.2906 501.407 29.7869C500.536 27.2832 498.388 25.7555 496.609 26.3745C494.83 26.9935 494.095 29.525 494.966 32.0286C495.838 34.5323 497.986 36.0601 499.764 35.4411Z" fill="#FF97B7"/>
<path d="M624.416 42.15C627.409 42.15 629.836 40.283 629.836 37.98C629.836 35.677 627.409 33.81 624.416 33.81C621.423 33.81 618.996 35.677 618.996 37.98C618.996 40.283 621.423 42.15 624.416 42.15Z" fill="#FF99B4"/>
<path d="M555.356 47.59C558.836 45.49 563.026 45.06 566.886 46.34C574.186 48.76 584.416 53.97 579.756 63.35C572.786 77.38 526.176 89.82 518.456 81.41C512.266 74.67 542.956 55.09 555.366 47.59H555.356Z" fill="#FCEE21"/>
<path d="M545.006 70.3999C572.176 64.4699 571.086 52.56 568.926 47.08C575.916 49.75 583.996 54.82 579.756 63.35C572.786 77.38 526.176 89.82 518.456 81.41C517.686 80.57 517.496 79.54 517.756 78.35C524.946 75.52 534.226 72.7499 545.016 70.3999H545.006Z" fill="#F2D214"/>
<path d="M532.146 85.11C533.886 84.99 535.526 84.8 536.906 84.6C554.316 82.14 576.076 73.21 580.736 63.84C582.226 60.84 582.426 57.98 581.326 55.34C579.186 50.19 572.476 47.03 567.226 45.29C563.046 43.9 558.506 44.39 554.786 46.64C541.036 54.95 517.786 70.14 516.586 78.55C516.386 79.93 516.756 81.18 517.636 82.14C520.396 85.15 526.766 85.46 532.146 85.09V85.11ZM561.576 46.76C563.226 46.65 564.916 46.85 566.536 47.39C571.346 48.99 577.476 51.81 579.296 56.19C580.146 58.24 579.976 60.42 578.766 62.86C574.486 71.47 553.106 80.08 536.606 82.42C527.896 83.66 521.406 83 519.266 80.67C518.826 80.19 518.666 79.62 518.776 78.88C519.556 73.47 533.446 62.13 555.936 48.54C557.666 47.5 559.606 46.9 561.586 46.76H561.576Z" fill="black"/>
<path d="M554.945 58.7684C560.905 54.7847 564.743 50.0701 563.519 48.2381C562.294 46.406 556.47 48.1503 550.51 52.1341C544.55 56.1178 540.712 60.8324 541.936 62.6644C543.161 64.4964 548.985 62.7521 554.945 58.7684Z" fill="#FEFCD3"/>
</svg>
